<svg width="306" height="195" viewBox="0 0 306 195" fill="none" xmlns="http://www.w3.org/2000/svg">
<path fill-rule="evenodd" clip-rule="evenodd" d="M143.767 122.312L89.6917 96.8074C85.0851 94.5808 85.0851 91.1397 89.6917 89.1156L108.518 80.2092L143.566 96.8074C148.174 99.034 155.583 99.034 159.99 96.8074L195.04 80.2092L213.866 89.1156C218.471 91.3422 218.471 94.7834 213.866 96.8074L159.789 122.312C155.583 124.337 148.174 124.337 143.767 122.312Z" fill="#FF6F3D"/>
<path fill-rule="evenodd" clip-rule="evenodd" d="M143.767 90.9367L89.6917 65.4319C85.0851 63.2053 85.0851 59.7641 89.6917 57.74L108.117 49.0359L143.767 65.8366C148.375 68.0632 155.784 68.0632 160.191 65.8366L195.84 49.0359L214.265 57.74C218.873 59.9666 218.873 63.4078 214.265 65.4319L160.191 90.9367C155.583 93.1633 148.174 93.1633 143.767 90.9367Z" fill="#95C038"/>
<path fill-rule="evenodd" clip-rule="evenodd" d="M143.767 60.3718L89.6917 34.8666C85.0851 32.64 85.0851 29.1989 89.6917 27.1748L143.767 1.66995C148.375 -0.556649 155.784 -0.556649 160.191 1.66995L214.265 27.1748C218.873 29.4014 218.873 32.8426 214.265 34.8666L160.191 60.3718C155.583 62.3959 148.174 62.3959 143.767 60.3718Z" fill="#5DC0E8"/>
<path d="M0 174.963C0 168.412 1.86349 163.469 5.71509 160.256C9.44236 156.919 13.915 155.312 19.009 155.312C24.1031 155.312 28.4514 156.919 32.179 160.256C35.9062 163.593 37.7697 168.412 37.7697 175.087C37.7697 181.637 35.9062 186.58 32.179 189.793C28.4514 193.13 23.9787 194.737 19.009 194.737C13.915 194.737 9.56669 193.13 5.71509 189.793C1.86349 186.456 0 181.513 0 174.963ZM8.19993 174.963C8.19993 179.536 9.06965 182.749 10.6848 184.85C12.4242 186.951 14.288 188.31 16.2758 188.805C16.7729 188.928 17.1456 189.052 17.6423 189.052C18.0153 189.052 18.512 189.175 18.8847 189.175C19.3817 189.175 19.7544 189.175 20.2515 189.052C20.7485 189.052 21.1212 188.928 21.6182 188.805C23.606 188.31 25.4698 186.951 27.0849 184.85C28.7001 182.749 29.5695 179.412 29.5695 175.087C29.5695 170.637 28.7001 167.424 27.0849 165.323C25.4698 163.222 23.606 161.862 21.6182 161.368C21.1212 161.244 20.6242 161.121 20.2515 161.121C19.7544 161.121 19.3817 160.997 18.8847 160.997C18.388 160.997 18.0153 160.997 17.6423 161.121C17.2696 161.121 16.7729 161.244 16.2758 161.368C14.288 161.862 12.4242 163.222 10.6848 165.323C9.06965 167.177 8.19993 170.513 8.19993 174.963Z" fill="#333333"/>
<path d="M41.87 155.679H52.0577L65.476 179.902L67.4638 185.217H67.5881L67.4638 178.296V155.679H75.291V194.239H65.1033L51.6853 169.026L49.6972 164.701H49.5729L49.6972 171.498V194.239H41.87V155.679Z" fill="#333333"/>
<path d="M83.3675 155.679H91.1948V187.689H106.601V194.239H83.3675V155.679Z" fill="#333333"/>
<path d="M101.753 155.679H110.823L118.775 169.15L120.017 171.869H120.265L121.508 169.15L129.584 155.679H137.908L123.869 178.543V194.239H116.041V178.419L101.753 155.679Z" fill="#333333"/>
<path d="M136.916 174.96C136.916 168.409 138.779 163.466 142.631 160.253C146.358 156.916 150.831 155.309 155.925 155.309C161.018 155.309 165.368 156.916 169.095 160.253C172.822 163.589 174.685 168.41 174.685 175.083C174.685 181.633 172.822 186.577 169.095 189.79C165.368 193.127 160.895 194.734 155.925 194.734C150.831 194.734 146.481 193.127 142.631 189.79C138.904 186.454 136.916 181.51 136.916 174.96ZM145.115 174.96C145.115 179.532 145.984 182.746 147.602 184.847C149.339 186.948 151.08 188.307 153.192 188.802C153.69 188.925 154.061 189.049 154.558 189.049C154.93 189.049 155.427 189.172 155.802 189.172C156.296 189.172 156.671 189.172 157.168 189.049C157.665 189.049 158.037 188.925 158.534 188.802C160.523 188.307 162.387 186.948 164.002 184.847C165.616 182.746 166.485 179.409 166.485 175.083C166.485 170.634 165.616 167.421 164.002 165.32C162.387 163.219 160.523 161.859 158.534 161.365C158.037 161.241 157.539 161.118 157.168 161.118C156.671 161.118 156.296 160.994 155.802 160.994C155.304 160.994 154.93 160.994 154.558 161.118C154.184 161.118 153.69 161.241 153.192 161.365C151.203 161.859 149.339 163.219 147.602 165.32C145.984 167.173 145.115 170.511 145.115 174.96Z" fill="#333333"/>
<path d="M180.15 155.679H201.769V162.106H187.978V171.498H201.148V178.049H187.978V194.239H180.15V155.679Z" fill="#333333"/>
<path d="M207.608 155.679H229.227V162.106H215.436V171.498H228.606V178.049H215.436V194.239H207.608V155.679Z" fill="#333333"/>
<path d="M233.825 194.239V155.679H241.651V194.239H233.825Z" fill="#333333"/>
<path d="M276.14 156.545V163.219C274.774 162.724 273.405 162.353 271.916 162.106C270.424 161.859 268.686 161.735 266.946 161.735C262.844 161.735 259.74 162.971 257.502 165.567C255.267 168.038 254.15 171.252 254.15 175.083C254.15 178.79 255.142 181.88 257.254 184.352C259.366 186.824 262.35 188.183 266.2 188.183C267.566 188.183 268.935 188.06 270.55 187.936C272.165 187.689 273.779 187.318 275.517 186.577L276.014 193.127C275.766 193.25 275.394 193.374 275.023 193.498C274.525 193.621 274.028 193.745 273.405 193.868C272.413 194.116 271.17 194.239 269.678 194.486C268.189 194.61 266.697 194.733 265.082 194.733C264.834 194.733 264.585 194.733 264.462 194.733C264.213 194.733 263.965 194.733 263.839 194.733C259.366 194.486 255.267 192.756 251.54 189.79C247.814 186.7 245.95 181.88 245.95 175.454C245.95 169.151 247.813 164.207 251.415 160.747C255.019 157.286 259.989 155.556 266.077 155.556C267.692 155.556 269.181 155.556 270.424 155.679C271.79 155.803 273.033 156.051 274.4 156.297C274.648 156.421 275.023 156.421 275.268 156.545C275.517 156.421 275.766 156.545 276.14 156.545Z" fill="#333333"/>
<path d="M282.354 155.681H305.588V161.736H290.305V171.376H304.099V177.308H290.305V188.184H305.588V194.24H282.354V155.681Z" fill="#333333"/>
</svg>
