<?xml version="1.0" encoding="UTF-8"?>
<svg version="1.1" xmlns="http://www.w3.org/2000/svg" width="150" height="150">
<path d="M0 0 C49.5 0 99 0 150 0 C150 49.5 150 99 150 150 C100.5 150 51 150 0 150 C0 100.5 0 51 0 0 Z " fill="#F50303" transform="translate(0,0)"/>
<path d="M0 0 C3.31239253 0.56865108 4.71322536 1.45960947 6.875 4 C9.6972753 7.00946703 11.79546348 7.79978398 16 8 C16 9.65 16 11.3 16 13 C15.01 13 14.02 13 13 13 C13 21.58 13 30.16 13 39 C11.35 39 9.7 39 8 39 C8 30.42 8 21.84 8 13 C6.68 13 5.36 13 4 13 C4 21.58 4 30.16 4 39 C2.35 39 0.7 39 -1 39 C-1 37.35 -1 35.7 -1 34 C-2.27200971 35.10281127 -3.54255853 36.20730769 -4.8125 37.3125 C-5.87404297 38.23482422 -5.87404297 38.23482422 -6.95703125 39.17578125 C-8.98627527 40.93059278 -8.98627527 40.93059278 -10.625 42.75 C-11.07875 43.1625 -11.5325 43.575 -12 44 C-14.1875 43.6875 -14.1875 43.6875 -16 43 C-15.52590352 38.68269587 -12.96603297 36.66352539 -9.9375 33.75 C-9.01839844 32.85796875 -8.09929687 31.9659375 -7.15234375 31.046875 C-6.44207031 30.37140625 -5.73179688 29.6959375 -5 29 C-6.52572656 25.67364118 -7.93344504 24.04436998 -11 22 C-10.34 20.68 -9.68 19.36 -9 18 C-7.125 18.25 -7.125 18.25 -5 19 C-3.75 21.0625 -3.75 21.0625 -3 23 C-2.34 23 -1.68 23 -1 23 C-1 19.7 -1 16.4 -1 13 C-6.28 13 -11.56 13 -17 13 C-17 21.58 -17 30.16 -17 39 C-18.65 39 -20.3 39 -22 39 C-22 30.09 -22 21.18 -22 12 C-23.65 12 -25.3 12 -27 12 C-27 20.91 -27 29.82 -27 39 C-28.32 39 -29.64 39 -31 39 C-30.99226563 37.86433594 -30.98453125 36.72867188 -30.9765625 35.55859375 C-31.74608789 29.43344164 -36.06250514 26.10370229 -40.375 22.0625 C-41.15617187 21.29615234 -41.93734375 20.52980469 -42.7421875 19.74023438 C-46.86528749 15.57667068 -46.86528749 15.57667068 -52 13 C-52 11.35 -52 9.7 -52 8 C-33.85 8 -15.7 8 3 8 C1.68 6.35 0.36 4.7 -1 3 C-0.67 2.01 -0.34 1.02 0 0 Z " fill="#FEE4E4" transform="translate(111,71)"/>
<path d="M0 0 C0.99 0 1.98 0 3 0 C4.86348569 1.93855502 6.44279228 4.0252585 8.0859375 6.15234375 C10.36165795 8.34911063 11.9018455 8.66463276 15 9 C15 10.32 15 11.64 15 13 C14.34 13 13.68 13 13 13 C13 21.91 13 30.82 13 40 C11.35 40 9.7 40 8 40 C8 31.09 8 22.18 8 13 C6.35 13 4.7 13 3 13 C3 21.58 3 30.16 3 39 C0 39 -3 39 -6 39 C-6 35 -6 35 -4.0625 33 C-3.381875 32.34 -2.70125 31.68 -2 31 C-1.2127322 28.8618034 -1.2127322 28.8618034 -1 27 C-3.31 27 -5.62 27 -8 27 C-8 27.99 -8 28.98 -8 30 C-9.32 30 -10.64 30 -12 30 C-12 29.01 -12 28.02 -12 27 C-12.99 27 -13.98 27 -15 27 C-15 25.68 -15 24.36 -15 23 C-14.01 23 -13.02 23 -12 23 C-12 19.7 -12 16.4 -12 13 C-13.98 13 -15.96 13 -18 13 C-18 21.58 -18 30.16 -18 39 C-19.32 39 -20.64 39 -22 39 C-22 30.42 -22 21.84 -22 13 C-23.32 13 -24.64 13 -26 13 C-25.773125 13.598125 -25.54625 14.19625 -25.3125 14.8125 C-25.209375 15.534375 -25.10625 16.25625 -25 17 C-26 18 -27 19 -28 20 C-27.71225849 22.97332891 -26.39923409 25.38809637 -25 28 C-26.375 29.5 -26.375 29.5 -28 31 C-28.66 31 -29.32 31 -30 31 C-28.35 33.31 -26.7 35.62 -25 38 C-26.32 38.66 -27.64 39.32 -29 40 C-31.31 37.69 -33.62 35.38 -36 33 C-35.34 31.68 -34.68 30.36 -34 29 C-33.10417827 27.00339546 -33.10417827 27.00339546 -33 25 C-34.35444301 23.22809091 -34.35444301 23.22809091 -36 22 C-34.71480435 19.13302508 -33.42870746 17.02392288 -31 15 C-30.34 15 -29.68 15 -29 15 C-29 14.34 -29 13.68 -29 13 C-31.31 13 -33.62 13 -36 13 C-36 11.68 -36 10.36 -36 9 C-23.13 9 -10.26 9 3 9 C1.68 7.35 0.36 5.7 -1 4 C-0.75 1.6875 -0.75 1.6875 0 0 Z " fill="#FEEFEF" transform="translate(108,23)"/>
<path d="M0 0 C0.66 0 1.32 0 2 0 C4 3 4 3 4 6 C6.31 4.68 8.62 3.36 11 2 C11 4.31 11 6.62 11 9 C13.31 9 15.62 9 18 9 C17.01 10.98 16.02 12.96 15 15 C17.475 15.99 17.475 15.99 20 17 C20 17.66 20 18.32 20 19 C17.03 19.495 17.03 19.495 14 20 C14.495 20.78375 14.99 21.5675 15.5 22.375 C17 25 17 25 17 27 C15.02 27 13.04 27 11 27 C11 28.98 11 30.96 11 33 C8.03824877 32.38722388 6.61941217 31.74627478 4 30 C3.34 31.98 2.68 33.96 2 36 C1.01 35.34 0.02 34.68 -1 34 C-1 32.68 -1 31.36 -1 30 C-1.78375 30.495 -2.5675 30.99 -3.375 31.5 C-6 33 -6 33 -8 33 C-8 31.02 -8 29.04 -8 27 C-9.98 27 -11.96 27 -14 27 C-13.42415568 24.61435923 -12.77772405 22.33317216 -12 20 C-13.98 19.67 -15.96 19.34 -18 19 C-18 18.34 -18 17.68 -18 17 C-16.35 16.34 -14.7 15.68 -13 15 C-13.66 13.02 -14.32 11.04 -15 9 C-12.69 9 -10.38 9 -8 9 C-8 7.02 -8 5.04 -8 3 C-6.02 3.66 -4.04 4.32 -2 5 C-1.34 3.35 -0.68 1.7 0 0 Z " fill="#FEF2F2" transform="translate(33,74)"/>
<path d="M0 0 C0.66 0 1.32 0 2 0 C2 0.66 2 1.32 2 2 C2.66 2 3.32 2 4 2 C4 1.34 4 0.68 4 0 C4.66 0 5.32 0 6 0 C6 0.99 6 1.98 6 3 C7.32 2.34 8.64 1.68 10 1 C10 2.32 10 3.64 10 5 C10.99 5 11.98 5 13 5 C13.66 7.31 14.32 9.62 15 12 C14.34 12 13.68 12 13 12 C13.99 13.485 13.99 13.485 15 15 C18.43595166 13.47291037 21.11912454 11.40072955 24 9 C22.28137475 16.63833445 16.38058532 22.72136446 10 27 C4.48133806 27.95004813 -1.82703546 28.06094868 -6.9375 25.5 C-12.45739239 20.99396539 -16.24990931 16.00036276 -18 9 C-17.29423828 9.6496875 -17.29423828 9.6496875 -16.57421875 10.3125 C-15.95160156 10.869375 -15.32898438 11.42625 -14.6875 12 C-14.07261719 12.556875 -13.45773438 13.11375 -12.82421875 13.6875 C-10.96868665 15.29201498 -10.96868665 15.29201498 -8 15 C-7.67 14.01 -7.34 13.02 -7 12 C-7.66 12 -8.32 12 -9 12 C-9 11.34 -9 10.68 -9 10 C-8.01 10 -7.02 10 -6 10 C-6.33 8.35 -6.66 6.7 -7 5 C-6.01 5 -5.02 5 -4 5 C-4 4.01 -4 3.02 -4 2 C-2.68 2 -1.36 2 0 2 C0 1.34 0 0.68 0 0 Z " fill="#FEEFEF" transform="translate(32,31)"/>
<path d="M0 0 C1.32 0 2.64 0 4 0 C4 8.58 4 17.16 4 26 C2.35 26.33 0.7 26.66 -1 27 C-0.67 26.01 -0.34 25.02 0 24 C-0.66 23.38125 -1.32 22.7625 -2 22.125 C-4 20 -4 20 -4 18 C-2 16.375 -2 16.375 0 15 C-0.309375 14.4225 -0.61875 13.845 -0.9375 13.25 C-2.77088305 9.36754177 -2.77088305 9.36754177 -3 7 C-2.02149805 5.97895449 -1.02019573 4.9793879 0 4 C0 2.68 0 1.36 0 0 Z " fill="#F74040" transform="translate(82,36)"/>
<path d="M0 0 C2.64 0 5.28 0 8 0 C8 3.3 8 6.6 8 10 C5.36 10 2.72 10 0 10 C0 6.7 0 3.4 0 0 Z " fill="#F62929" transform="translate(100,36)"/>
<path d="M0 0 C3.3 0 6.6 0 10 0 C10 3.3 10 6.6 10 10 C6.06910841 6.7366183 3.08825885 4.11767846 0 0 Z " fill="#F50707" transform="translate(69,84)"/>
<path d="M0 0 C0.66 0 1.32 0 2 0 C2 3.3 2 6.6 2 10 C0.68 10.33 -0.64 10.66 -2 11 C-2.66 10.34 -3.32 9.68 -4 9 C-3.64059802 5.5257809 -1.96693291 2.83238339 0 0 Z " fill="#F50F0F" transform="translate(83,37)"/>
<path d="M0 0 C2.31 1.98 4.62 3.96 7 6 C5.02 6.99 5.02 6.99 3 8 C0 2.25 0 2.25 0 0 Z " fill="#FCBEBE" transform="translate(14,40)"/>
<path d="M0 0 C0.33 0.66 0.66 1.32 1 2 C0.06553465 4.03144641 -0.93224776 6.03533587 -2 8 C-3.32 7.34 -4.64 6.68 -6 6 C-4.02 4.02 -2.04 2.04 0 0 Z " fill="#FCC1C1" transform="translate(55,40)"/>
</svg>
