<?xml version="1.0" encoding="UTF-8" standalone="no"?>
<svg
   id="a"
   width="299.99841"
   height="43.269001"
   viewBox="0 0 299.99841 43.269001"
   version="1.1"
   sodipodi:docname="DeepComputing.svg"
   inkscape:version="1.2.2 (b0a8486541, 2022-12-01)"
   xmlns:inkscape="http://www.inkscape.org/namespaces/inkscape"
   xmlns:sodipodi="http://sodipodi.sourceforge.net/DTD/sodipodi-0.dtd"
   xmlns="http://www.w3.org/2000/svg"
   xmlns:svg="http://www.w3.org/2000/svg">
  <sodipodi:namedview
     id="namedview37"
     pagecolor="#ffffff"
     bordercolor="#000000"
     borderopacity="0.25"
     inkscape:showpageshadow="2"
     inkscape:pageopacity="0.0"
     inkscape:pagecheckerboard="0"
     inkscape:deskcolor="#d1d1d1"
     showgrid="false"
     inkscape:zoom="4.5146048"
     inkscape:cx="75.20038"
     inkscape:cy="21.042816"
     inkscape:window-width="1854"
     inkscape:window-height="1043"
     inkscape:window-x="0"
     inkscape:window-y="0"
     inkscape:window-maximized="1"
     inkscape:current-layer="a" />
  <defs
     id="defs4">
    <style
       id="style2">.b{fill:#2b2d42;}.c{fill:#d81f2b;}</style>
  </defs>
  <g
     id="g335"
     transform="matrix(1.4602777,0,0,1.4602777,-1.8696711,-0.26236323)"
     style="stroke-width:0.684801">
    <path
       class="b"
       d="m 2,5.19 h 7.59 c 5.64,0 9.48,3.47 9.48,8.69 0,5.22 -3.85,8.69 -9.48,8.69 H 2 Z m 7.45,14.64 c 3.87,0 6.38,-2.36 6.38,-5.96 0,-3.6 -2.51,-5.96 -6.38,-5.96 H 5.23 v 11.91 h 4.22 z"
       id="path6"
       style="stroke-width:0.684801" />
    <path
       class="b"
       d="m 34.61,16.93 h -10.4 c 0.37,1.94 1.99,3.18 4.29,3.18 1.49,0 2.66,-0.47 3.6,-1.44 l 1.66,1.91 c -1.19,1.41 -3.05,2.16 -5.34,2.16 -4.44,0 -7.32,-2.85 -7.32,-6.8 0,-3.95 2.9,-6.78 6.85,-6.78 3.95,0 6.7,2.71 6.7,6.85 0,0.25 -0.03,0.62 -0.05,0.92 z M 24.18,14.87 h 7.52 c -0.25,-1.91 -1.71,-3.23 -3.75,-3.23 -2.04,0 -3.48,1.29 -3.77,3.23 z"
       id="path8"
       style="stroke-width:0.684801" />
    <path
       class="b"
       d="m 50.19,16.93 h -10.4 c 0.37,1.94 1.99,3.18 4.29,3.18 1.49,0 2.66,-0.47 3.6,-1.44 l 1.66,1.91 c -1.19,1.41 -3.05,2.16 -5.34,2.16 -4.44,0 -7.32,-2.85 -7.32,-6.8 0,-3.95 2.9,-6.78 6.85,-6.78 3.95,0 6.7,2.71 6.7,6.85 0,0.25 -0.02,0.62 -0.05,0.92 z M 39.77,14.87 h 7.52 c -0.25,-1.91 -1.71,-3.23 -3.75,-3.23 -2.04,0 -3.47,1.29 -3.77,3.23 z"
       id="path10"
       style="stroke-width:0.684801" />
    <path
       class="b"
       d="m 66.35,15.94 c 0,4.12 -2.85,6.8 -6.73,6.8 -1.69,0 -3.18,-0.57 -4.24,-1.79 v 6.43 h -3.1 V 9.31 h 2.95 v 1.74 c 1.04,-1.27 2.58,-1.89 4.39,-1.89 3.87,0 6.73,2.68 6.73,6.78 z m -3.15,0 c 0,-2.53 -1.69,-4.15 -3.92,-4.15 -2.23,0 -3.95,1.61 -3.95,4.15 0,2.54 1.71,4.15 3.95,4.15 2.24,0 3.92,-1.61 3.92,-4.15 z"
       id="path12"
       style="stroke-width:0.684801" />
    <path
       class="b"
       d="m 68.38,13.88 c 0,-5.19 3.97,-8.94 9.31,-8.94 2.83,0 5.26,1.02 6.88,2.9 L 82.48,9.8 C 81.21,8.43 79.65,7.76 77.84,7.76 c -3.6,0 -6.21,2.53 -6.21,6.11 0,3.58 2.61,6.11 6.21,6.11 1.81,0 3.38,-0.67 4.64,-2.06 l 2.09,1.98 c -1.61,1.89 -4.05,2.9 -6.9,2.9 -5.31,0 -9.28,-3.75 -9.28,-8.94 z"
       id="path14"
       style="stroke-width:0.684801" />
    <path
       class="b"
       d="m 86.59,15.94 c 0,-3.97 2.98,-6.78 7.05,-6.78 4.07,0 7.07,2.8 7.07,6.78 0,3.98 -2.95,6.8 -7.07,6.8 -4.12,0 -7.05,-2.83 -7.05,-6.8 z m 11,0 c 0,-2.53 -1.69,-4.15 -3.95,-4.15 -2.26,0 -3.92,1.61 -3.92,4.15 0,2.54 1.69,4.15 3.92,4.15 2.23,0 3.95,-1.61 3.95,-4.15 z"
       id="path16"
       style="stroke-width:0.684801" />
    <path
       class="b"
       d="m 124.91,14.97 v 7.6 h -3.1 v -7.2 c 0,-2.36 -1.09,-3.5 -2.98,-3.5 -2.04,0 -3.45,1.34 -3.45,3.97 v 6.73 h -3.1 v -7.2 c 0,-2.36 -1.09,-3.5 -2.98,-3.5 -2.06,0 -3.45,1.34 -3.45,3.97 v 6.73 h -3.1 V 9.31 h 2.95 V 11 c 0.99,-1.19 2.53,-1.84 4.34,-1.84 1.94,0 3.55,0.72 4.47,2.21 1.07,-1.37 2.85,-2.21 4.96,-2.21 3.2,0 5.44,1.81 5.44,5.81 z"
       id="path18"
       style="stroke-width:0.684801" />
    <path
       class="b"
       d="m 141.02,15.94 c 0,4.12 -2.85,6.8 -6.73,6.8 -1.69,0 -3.18,-0.57 -4.24,-1.79 v 6.43 h -3.1 V 9.31 h 2.95 v 1.74 c 1.04,-1.27 2.58,-1.89 4.39,-1.89 3.87,0 6.73,2.68 6.73,6.78 z m -3.15,0 c 0,-2.53 -1.69,-4.15 -3.92,-4.15 -2.23,0 -3.95,1.61 -3.95,4.15 0,2.54 1.71,4.15 3.95,4.15 2.24,0 3.92,-1.61 3.92,-4.15 z"
       id="path20"
       style="stroke-width:0.684801" />
    <path
       class="b"
       d="m 155.98,9.31 v 13.25 h -2.95 v -1.69 c -0.99,1.22 -2.56,1.86 -4.27,1.86 -3.4,0 -5.71,-1.86 -5.71,-5.86 V 9.3 h 3.1 v 7.15 c 0,2.41 1.14,3.55 3.1,3.55 2.16,0 3.62,-1.34 3.62,-4 V 9.3 h 3.1 z"
       id="path22"
       style="stroke-width:0.684801" />
    <path
       class="b"
       d="m 167.74,21.85 c -0.74,0.6 -1.86,0.89 -2.98,0.89 -2.9,0 -4.57,-1.54 -4.57,-4.47 v -6.38 h -2.18 V 9.41 h 2.18 V 6.38 h 3.1 v 3.03 h 3.55 v 2.48 h -3.55 v 6.3 c 0,1.29 0.65,1.99 1.84,1.99 0.65,0 1.26,-0.17 1.74,-0.55 l 0.87,2.21 z"
       id="path24"
       style="stroke-width:0.684801" />
    <g
       id="g30"
       style="stroke-width:0.684801">
      <path
         class="b"
         d="m 170.64,9.31 h 3.1 v 13.25 h -3.1 z"
         id="path26"
         style="stroke-width:0.684801" />
      <path
         class="c"
         d="m 169.77,4.72 c 0,-1.28 1.03,-2.28 2.43,-2.28 1.4,0 2.43,0.94 2.43,2.19 0,1.34 -1,2.37 -2.43,2.37 -1.43,0 -2.43,-1 -2.43,-2.28 z"
         id="path28"
         style="stroke-width:0.684801" />
    </g>
    <path
       class="b"
       d="m 189.72,14.97 v 7.6 h -3.1 v -7.2 c 0,-2.36 -1.17,-3.5 -3.15,-3.5 -2.21,0 -3.7,1.34 -3.7,4 v 6.7 h -3.1 V 9.31 h 2.95 v 1.71 c 1.02,-1.22 2.63,-1.86 4.57,-1.86 3.18,0 5.53,1.81 5.53,5.81 z"
       id="path32"
       style="stroke-width:0.684801" />
    <path
       class="b"
       d="m 206,9.31 v 11.24 c 0,4.81 -2.51,7 -7.15,7 -2.48,0 -4.94,-0.65 -6.45,-1.89 l 1.39,-2.33 c 1.17,0.97 3.05,1.59 4.89,1.59 2.93,0 4.22,-1.34 4.22,-4.02 v -0.69 c -1.09,1.19 -2.66,1.76 -4.44,1.76 -3.8,0 -6.7,-2.58 -6.7,-6.43 0,-3.85 2.9,-6.38 6.7,-6.38 1.86,0 3.5,0.6 4.59,1.91 V 9.31 Z m -3.05,6.23 c 0,-2.23 -1.69,-3.75 -4.02,-3.75 -2.33,0 -4.04,1.51 -4.04,3.75 0,2.24 1.69,3.8 4.04,3.8 2.35,0 4.02,-1.54 4.02,-3.8 z"
       id="path34"
       style="stroke-width:0.684801" />
  </g>
</svg>
