<svg width="119" height="119" viewBox="0 0 119 119" fill="none" xmlns="http://www.w3.org/2000/svg">
<path d="M0 0H119V119H0V0Z" fill="#F50000"/>
<path d="M60.4807 26.3265H92.4509L88.2326 21.6642L90.5638 19L97.8902 26.3265H101.776V29.9897L99.7774 30.2118L99.4443 50.9701H95.8921L95.5591 29.9897L92.1179 30.1007L92.4509 50.8591H88.6766L88.7876 48.75L86.0125 51.6362L83.3483 48.972L88.6766 43.5326V41.0905L83.2373 40.9795L83.1263 43.6437L79.463 43.5326L79.574 40.8685H77.5759L77.5204 37.4272L79.796 37.3717L79.574 30.0452L75.0782 29.9897L75.1892 50.9146L71.5815 50.8591V29.8232L68.4733 29.9897L68.4178 30.2673L70.1939 31.9324L65.6981 36.4282L65.9201 36.8722L70.0829 40.813L65.5316 45.2533L69.8609 49.5271L67.2522 51.9137L60.5917 45.1423L65.032 40.6465L60.8138 36.2617L67.0857 30.0452H60.4252L60.4807 26.3265Z" fill="white"/>
<path d="M83.4385 30.3437L83.383 37.5592L88.9889 37.6702L88.9334 30.2327L83.4385 30.3437Z" fill="#F50000" stroke="#F30000" stroke-width="0.232422"/>
<path d="M50.4499 64.1709V67.7817L52.4122 67.9386L66.9337 82.5386V88.7396L70.7014 88.8181V67.7032L74.3121 67.7817V88.5826L78.1583 88.6611L78.0013 67.7817L91.1099 67.8602L90.9529 76.573L85.9292 71.3139L83.025 74.2182L89.226 80.1837L78.4723 90.7804L81.3766 93.4492L90.9529 83.559V88.6611H94.7991L94.6421 67.6247L98.4883 67.7817L98.2528 88.5826L102.021 88.6611L101.942 67.7032H104.532L104.375 64.1709L100.372 64.3279L92.9937 56.7925L90.6389 59.4613L95.3485 64.2494L50.4499 64.1709Z" fill="white"/>
<path d="M57.9067 67.7816L67.0121 67.8601L66.7766 76.9654L57.9067 67.7816Z" fill="#F50000" stroke="#F30000" stroke-width="0.232422"/>
<path d="M31.4707 48.0985C41.6806 48.0985 49.9568 38.3878 49.9568 26.4081C48.3325 31.2545 45.3933 35.2658 41.6497 37.8795L40.0718 36.5001L43.1657 33.7774L39.4221 32.6521L41.4022 28.7133L37.5348 29.3667L38.1071 24.8653L34.7502 27.2249L33.7911 22.778L31.4707 26.4081L29.1502 22.778L28.1757 27.2068L24.8342 24.8835L25.4066 29.4212L21.5392 28.7496L23.5503 32.6884L19.7757 33.8137L22.8696 36.5364L21.3226 37.934C17.6563 35.3929 14.6707 31.4723 13 26.4626C13 38.4422 21.2762 48.153 31.4862 48.153L31.4707 48.0985Z" fill="white" stroke="#F30000" stroke-width="1.67567"/>
<path d="M23.0626 66.8954L15.7198 66.0314L20.1721 71.6605L13.3635 74.4357L20.1721 77.1848L15.7198 82.814L23.0626 81.95L22.1585 88.9798L28.0492 84.7252L30.9534 91.2445L33.8303 84.7252L39.7484 88.9929L38.8443 81.9761L46.1871 82.8532L41.7348 77.2241L48.5434 74.475L41.7348 71.6997L46.1871 66.0706L38.8443 66.9215L39.7484 59.9048L33.8577 64.1593L30.9534 57.627L28.0766 64.1332L22.1585 59.8786L23.0626 66.8954Z" fill="white" stroke="#F30000" stroke-width="1.33917"/>
</svg>
