<svg width="120" height="120" viewBox="0 0 120 120" fill="none" xmlns="http://www.w3.org/2000/svg">
<mask id="mask0_4_12" style="mask-type:luminance" maskUnits="userSpaceOnUse" x="0" y="0" width="120" height="120">
<path d="M119.366 0H0V119.366H119.366V0Z" fill="white"/>
</mask>
<g mask="url(#mask0_4_12)">
<path d="M119.366 0H0V119.366H119.366V0Z" fill="#ED1C24"/>
<path d="M86.1106 16.5563L89.0789 23.4511L95.0991 18.9611L94.2246 26.4193L101.683 25.5448L97.2013 31.5654L104.096 34.5334L97.2013 37.5017L101.683 43.522L94.2246 42.6475L95.0991 50.1058L89.0789 45.6158L86.1106 52.5106L83.1425 45.6158L77.122 50.1058L77.9965 42.6475L70.5466 43.522L75.0282 37.5017L68.1334 34.5334L75.0282 31.5654L70.5466 25.5448L77.9965 26.4193L77.122 18.9611L83.1425 23.4511L86.1106 16.5563Z" fill="white"/>
<path d="M50.1395 24.2667C49.1892 29.6395 45.7922 34.1717 41.1507 36.6607L39.9736 35.2565L44.1777 32.9443L39.3935 32.6078L42.3951 28.866L37.8462 30.3879L39.1916 25.7802L35.5675 28.925L35.0462 24.1573L32.9021 28.4457L30.5898 24.2415L30.2534 29.0259L26.5118 26.0241L28.0337 30.573L23.4258 29.236L26.5705 32.8517L21.803 33.373L26.0996 35.5172L25.1748 36.9549C20.2138 34.5333 16.5646 29.8498 15.5724 24.2499C15.3958 25.2505 15.3033 26.2763 15.3033 27.3273C15.3033 37.0223 23.1568 44.8757 32.8517 44.8757C42.5467 44.8757 50.4001 37.0223 50.4001 27.3273C50.4001 26.2763 50.3076 25.2505 50.1308 24.2499L50.1395 24.2667Z" fill="white"/>
<path d="M15.5724 82.7136L21.0547 88.196L15.3538 93.8969L24.149 102.692L27.4283 99.4127L21.9123 93.8969L27.6131 88.196L22.131 82.7136L27.8992 76.954L25.6289 74.6837H29.4379V101.313H34.2811V74.6837H39.8139V83.79H36.9297V88.6332H39.8139V91.8621H44.657V88.6332H51.4595V91.946L44.6319 98.7737L47.9112 102.053L51.4595 98.5046V101.313H56.3027V74.6837H60.5658V101.313H65.409V74.6837H68.5202V69.8403H63.2818L53.8391 60.3894L50.5598 63.6687L56.7316 69.8403H15.2613V74.6837H23.6193L15.5808 82.722L15.5724 82.7136ZM44.657 74.6753H51.4595V83.7816H44.657V74.6753Z" fill="white"/>
<path d="M99.8416 69.8319L90.3989 60.3894L87.1196 63.6687L93.283 69.8319H99.8416Z" fill="white"/>
<path d="M104.105 69.8318H73.5485V74.6752H76.3149L94.8469 93.0055V101.313H99.6901V74.6836H104.105V69.8402V69.8318ZM94.8469 86.3628L83.1593 74.6752H94.8469V86.3628Z" fill="white"/>
</g>
</svg>
