<svg width="1000" height="240" viewBox="0 0 1000 240" fill="none" xmlns="http://www.w3.org/2000/svg">
<g clip-path="url(#clip0_14_4)">
<path d="M98.8092 66.2069L93.6532 95.1254L88.5433 124.09H109.341C113.688 124.09 117.41 120.988 118.173 116.716L122.023 95.1254L127.168 66.2069H98.8092Z" fill="#009DFF"/>
<path d="M82.8786 95.1253L88.0347 66.2069H59.6648L54.5549 95.1253L49.3989 124.09L44.2428 153.055H72.6127L77.7688 124.09L82.8786 95.1253Z" fill="#009DFF"/>
<path d="M28.0694 66.2069C23.711 66.2069 19.9884 69.321 19.237 73.5928L15.4335 95.1254L10.2775 124.09L5.16763 153.055L0 181.973H28.3584L33.4682 153.055L38.6243 124.09L43.7341 95.1254L48.9017 66.2069H28.0694V66.2069Z" fill="#18032C"/>
<path d="M44.2428 153.055L39.1329 181.973H67.4451L72.6011 153.055H44.2428Z" fill="#18032C"/>
<path d="M196.532 67.816V180.85H260.173V159.596H224.081V67.816H196.532Z" fill="#18032C"/>
<path d="M384.659 124.009C384.659 90.0316 359.04 66.2069 326.809 66.2069C294.578 66.2069 268.647 90.0316 268.647 124.009C268.647 157.986 294.751 181.973 326.809 181.973C358.867 181.973 384.659 157.986 384.659 124.009ZM296.844 124.009C296.844 103.877 308.451 91.1661 326.809 91.1661C345.168 91.1661 356.624 103.889 356.624 124.009C356.624 144.129 344.855 156.852 326.809 156.852C308.763 156.852 296.844 143.805 296.844 124.009V124.009Z" fill="#18032C"/>
<path d="M452.844 66.5311C419.006 66.5311 395.318 90.3558 395.318 124.171C395.318 157.987 419.168 181.649 453.006 181.649C482.809 181.649 501.665 162.166 507.468 142.682V117.086H447.526V137.369H482.497C478.312 150.091 468.798 157.338 455.11 157.338C435.295 157.338 423.364 145.102 423.364 124.171C423.364 104.526 435.121 91.965 452.855 91.965C463.168 91.965 470.902 95.9936 475.087 103.553H505.538C499.572 80.3652 479.919 66.5195 452.844 66.5195V66.5311Z" fill="#18032C"/>
<path d="M550.277 118.371V90.0316H565.26C576.22 90.0316 580.89 95.5074 580.89 104.201C580.89 112.895 576.22 118.371 565.26 118.371H550.277ZM608.925 104.201C608.925 83.4329 595.064 67.816 567.353 67.816H522.717V180.85H550.266V140.274H567.341C596.185 140.274 608.913 122.886 608.913 104.213L608.925 104.201Z" fill="#18032C"/>
<path d="M734.613 124.009C734.613 90.0316 708.994 66.2069 676.763 66.2069C644.532 66.2069 618.59 90.0316 618.59 124.009C618.59 157.986 644.694 181.973 676.763 181.973C708.832 181.973 734.613 157.986 734.613 124.009ZM646.798 124.009C646.798 103.877 658.405 91.1661 676.775 91.1661C695.144 91.1661 706.578 103.889 706.578 124.009C706.578 144.129 694.821 156.852 676.775 156.852C658.728 156.852 646.798 143.805 646.798 124.009V124.009Z" fill="#18032C"/>
<path d="M749.942 180.85H777.491V67.816H749.942V180.85Z" fill="#18032C"/>
<path d="M871.098 67.816V137.855L825.017 67.816H797.468V180.85H825.017V111.136L871.098 180.85H898.647V67.816H871.098Z" fill="#18032C"/>
<path d="M912.509 89.8695H942.474V180.839H970.023V89.8695H1000V67.816H912.509V89.8695V89.8695Z" fill="#18032C"/>
</g>
<defs>
<clipPath id="clip0_14_4">
<rect width="1000" height="115.766" fill="white" transform="translate(0 66.2069)"/>
</clipPath>
</defs>
</svg>
