<svg width="622" height="205" viewBox="0 0 622 205" fill="none" xmlns="http://www.w3.org/2000/svg">
<path d="M9.39099 77.3117C9.39099 75.7465 10.216 74.3148 11.5507 73.5262L39.9663 56.9403C41.4101 56.1031 43.2179 57.1466 43.2179 58.8331V178.95C43.2179 179.787 42.5506 180.467 41.7256 180.467H10.8955C10.0583 180.467 9.39099 179.787 9.39099 178.95V77.3117Z" fill="url(#paint0_linear_4_21)"/>
<path d="M9.39099 72.3616C9.39099 71.8277 9.67005 71.3303 10.1432 71.0512L40.9733 53.155C41.9682 52.5726 43.2179 53.3006 43.2179 54.4532V116.247C43.2179 117.497 42.2109 118.504 40.9733 118.504H11.6477C10.398 118.504 9.39099 117.497 9.39099 116.247V72.3616Z" fill="url(#paint1_linear_4_21)"/>
<path d="M94.8805 51.3107L12.4121 98.9086C10.5436 99.9763 9.39099 101.978 9.39099 104.15V139.482L98.6296 87.6977C100.486 86.6179 101.639 84.628 101.639 82.4683V55.2539C101.639 51.7596 97.8894 49.5878 94.8805 51.3107Z" fill="url(#paint2_linear_4_21)"/>
<path fill-rule="evenodd" clip-rule="evenodd" d="M13.0188 137.37C10.8591 138.547 9.39099 140.84 9.39099 143.485C9.39099 143.498 9.39099 143.522 9.39099 143.534V135.296L13.0188 137.37Z" fill="#6501E5"/>
<path fill-rule="evenodd" clip-rule="evenodd" d="M98.4233 87.819C98.7266 87.1031 98.8965 86.3145 98.8965 85.4894C98.8965 84.2033 98.4961 83.0022 97.8167 82.0315L101.651 79.8354V82.4562C101.651 84.6159 100.51 86.6057 98.6538 87.6855L98.4233 87.819Z" fill="#9327FE"/>
<path d="M97.8652 82.1286C96.8339 78.9377 43.9338 43.2422 7.53462 18.5151C6.30918 17.6779 6.9037 15.7609 8.39607 15.7609H51.7475C52.0508 15.7609 52.342 15.8458 52.5968 16.0278L99.0663 48.2289C100.68 49.3573 101.651 51.2136 101.651 53.2035V79.9083L97.8652 82.1286Z" fill="#9327FE"/>
<path d="M123.332 115.118C122.071 114.742 120.178 114.487 118.285 114.487C113.238 114.487 105.278 116.526 101.99 123.684V115.118H83.439V178.671H102.621V150.923C102.621 138.268 109.561 133.67 117.278 133.67C119.159 133.67 121.185 133.791 123.332 134.301V115.118Z" fill="#0556F3"/>
<path d="M163.02 162.692C155.825 162.692 148.885 157.451 148.885 146.834C148.885 136.096 155.825 131.11 163.02 131.11C170.348 131.11 177.155 136.096 177.155 146.834C177.155 157.584 170.348 162.692 163.02 162.692ZM163.02 113.201C144.335 113.201 129.69 127.142 129.69 146.834C129.69 166.526 144.335 180.6 163.02 180.6C181.838 180.6 196.349 166.526 196.349 146.834C196.349 127.142 181.838 113.201 163.02 113.201Z" fill="#0556F3"/>
<path d="M204.284 182.251C206.056 193.643 217.546 204.891 235.6 204.891C259.077 204.891 269.184 189.033 269.184 170.748V115.118H250.875V121.901C249.116 118.576 243.68 113.966 233.452 113.966C216.284 113.966 204.284 128.295 204.284 145.051C204.284 162.692 216.781 175.99 233.452 175.99C242.54 175.99 247.975 172.289 250.244 168.831V171.768C250.244 183.282 244.311 188.014 234.714 188.014C227.519 188.014 222.459 183.537 221.21 177.397L204.284 182.251ZM236.995 159.113C229.29 159.113 223.479 153.738 223.479 145.051C223.479 136.351 229.788 130.976 236.995 130.976C244.19 130.976 250.365 136.351 250.365 145.051C250.365 153.738 244.821 159.113 236.995 159.113Z" fill="#0556F3"/>
<path d="M325.287 115.118C324.037 114.742 322.145 114.487 320.24 114.487C315.192 114.487 307.233 116.526 303.957 123.684V115.118H285.394V178.671H304.588V150.923C304.588 138.268 311.528 133.67 319.233 133.67C321.125 133.67 323.152 133.791 325.287 134.301V115.118Z" fill="#0556F3"/>
<path d="M333.647 161.163C333.647 171.258 341.594 180.467 355.353 180.467C363.688 180.467 369.755 176.888 373.031 171.513C373.031 175.868 373.54 178.162 373.662 178.671H390.963C390.83 178.04 390.211 173.818 390.211 168.831V137.759C390.211 124.716 382.749 113.201 362.426 113.201C343.984 113.201 335.661 125.225 334.896 134.301L351.567 137.759C351.955 133.027 355.608 128.416 362.305 128.416C368.359 128.416 371.526 131.619 371.526 135.332C371.526 137.504 370.386 139.166 366.976 139.676L352.198 141.981C341.849 143.51 333.647 149.904 333.647 161.163ZM360.036 166.405C354.722 166.405 352.586 163.202 352.586 159.877C352.586 155.4 355.608 153.483 359.648 152.84L371.526 150.923V153.738C371.526 163.59 365.714 166.405 360.036 166.405Z" fill="#0556F3"/>
<path d="M425.542 178.671V142.102C425.542 136.351 429.207 131.11 435.904 131.11C442.844 131.11 445.999 135.842 445.999 141.847V178.671H464.938V141.981C464.938 136.351 468.59 131.11 475.409 131.11C482.228 131.11 485.383 135.842 485.383 141.847V178.671H503.946V137.504C503.946 120.238 492.59 113.201 480.724 113.201C472.255 113.201 466.2 116.016 461.274 123.175C458.12 116.914 451.677 113.201 442.711 113.201C435.904 113.201 427.823 116.781 424.657 122.41V115.118H406.36V178.671H425.542Z" fill="#0556F3"/>
<path d="M617.293 178.671V161.928H587.883L616.796 131.11V115.118H565.412V131.753H592.299L564.648 161.539V178.671H617.293Z" fill="#0556F3"/>
<path d="M543.33 178.55H521.272L527.763 136.885H521.272V113.662H549.797V136.885L543.33 178.55Z" fill="#065AFF"/>
<path d="M549.797 71.7063H521.272V99.1755H549.797V71.7063Z" fill="#065AFF"/>
<defs>
<linearGradient id="paint0_linear_4_21" x1="26.3049" y1="167.433" x2="26.3049" y2="110.068" gradientUnits="userSpaceOnUse">
<stop stop-color="#00A3FF"/>
<stop offset="1" stop-color="#0597EA"/>
</linearGradient>
<linearGradient id="paint1_linear_4_21" x1="26.3049" y1="111.912" x2="26.3049" y2="82.8845" gradientUnits="userSpaceOnUse">
<stop stop-color="#00A3FF"/>
<stop offset="1" stop-color="#0597EA"/>
</linearGradient>
<linearGradient id="paint2_linear_4_21" x1="38.4985" y1="101.507" x2="108.098" y2="62.6499" gradientUnits="userSpaceOnUse">
<stop stop-color="#6501E5"/>
<stop offset="1" stop-color="#5F01D8"/>
</linearGradient>
</defs>
</svg>
